<?xml version="1.0" encoding="utf-8"?>
<!-- Generator: Adobe Illustrator 24.1.3, SVG Export Plug-In . SVG Version: 6.00 Build 0)  -->
<svg version="1.1" id="Layer_1" xmlns="http://www.w3.org/2000/svg" xmlns:xlink="http://www.w3.org/1999/xlink" x="0px" y="0px"
	 viewBox="0 0 1920 1080" style="enable-background:new 0 0 1920 1080;" xml:space="preserve">
<style type="text/css">
	.st0{fill:#FFFFFF;}
</style>
<g>
	<path d="M479.6,102c29,0,55.7,0,84.9,0c0,6,0,11.8,0,17.7c0,98.2-0.1,196.4,0.2,294.5c0,11.6,0.2,23.7,3.8,34.4
		c2.2,6.5,10.5,13.4,17.3,15.2c10,2.6,17.5-4.6,19.2-14.9c1.9-11.9,3.1-24.1,3.1-36.2c0.2-97.2,0.1-194.3,0.1-291.5
		c0-6,0-11.9,0-18.9c28.6,0,55.6,0,84.1,0c0.2,4.8,0.7,9.6,0.7,14.5c0,99.7,0.7,199.4-0.5,299.1c-0.3,24.4-3.3,49.8-11.3,72.8
		c-7.4,22.2-22,36.9-42.9,46.5c-40.5,18.6-100.1,11.1-128.3-17.1c-22.6-22.6-29.5-51.8-29.7-82.1c-0.8-104.2-0.6-208.5-0.7-312.8
		C479.6,116.8,479.6,110.3,479.6,102z"/>
	<path d="M925.5,226c-29.5,0-57.6,0-88.5,0c0-9.8,0.4-19.2-0.1-28.6c-0.7-12.4-6.8-20-20.1-19.5c-12.2,0.5-21.7,10-18.2,22.6
		c3.6,13.1,9.8,26.9,18.8,36.8c22.1,24.3,46.3,46.7,69.9,69.5c56.6,54.6,46.7,144.6,26.4,190c-10.5,23.6-28.9,38.6-54.4,44.3
		c-29.3,6.5-58.4,5.2-86.7-4.8c-29.4-10.4-46.7-33-51.9-62.3c-5.5-31.1-6.3-63-9.3-95.9c31.6,0,59.6,0,89.1,0
		c0,18.1-0.4,35.2,0.2,52.3c0.2,7.5,0,16.5,4.1,21.8c4.4,5.8,13.6,11.2,20.3,10.8c5.7-0.4,14.6-8.8,15.5-14.7
		c4.8-29.6-0.1-57.6-22.1-80.1c-22.2-22.8-45.1-45-67.2-68.1c-38.1-39.8-45-87-30.1-138.1c11.7-39.8,39.5-60.8,81.1-63.7
		c33.5-2.3,66,0.2,92.2,24.7c22.1,20.8,27.5,48.7,30.8,77.1C926.3,208.1,925.5,216.3,925.5,226z"/>
	<path d="M367.1,102.1c30,0,58.1,0,87,0c0.5,4,1.2,7.4,1.2,10.8c0.1,105.3,0.1,210.6,0.1,315.8c0,28-5.4,54.4-22.9,77.1
		c-27.8,36.1-76.8,48.9-125.1,33c-42.3-14-65.1-46.5-65.8-95c-0.5-35.9-0.1-71.7-0.1-108.7c28.7,0,56.2,0,85.8,0c0,11,0,21.5,0,31.9
		c0.1,25.3-0.1,50.6,0.7,75.9c0.4,12.4,6.4,21.8,20.5,21.2c13.3-0.6,17.8-9.8,18.4-21.7c0.3-5.6,0.2-11.1,0.2-16.7
		c0-101.7,0-203.5,0-305.2C367.1,115,367.1,109.5,367.1,102.1z"/>
	<path d="M992.4,185.6c-17.6,0-34,0-51.3,0c0-28.6,0-55.2,0-83c63,0,125.9,0,190,0c0,26.9,0,53.8,0,82.8c-16.9,0-33.3,0-50.8,0
		c0,119.3,0,236.6,0,355c-29.6,0-58.1,0-87.9,0C992.4,422.1,992.4,304.9,992.4,185.6z"/>
</g>
<path d="M1618.7,241.3c-11.1-5.7-22.4-11.5-33.6-17.3c0.5-1.1,1-2.2,1.5-3.3c10.9,4.9,21.9,9.9,32.8,14.8c0.7-1.3,1.3-2.6,2-3.9
	c-10-5.3-19.9-10.7-29.9-16c0.4-1.1,0.9-2.2,1.3-3.3c11,4.7,22.1,9.4,33.1,14.2c0.6-1.3,1.2-2.5,1.8-3.8
	c-6.7-3.7-13.4-7.5-20.1-11.2c0.2-0.6,0.4-1.3,0.6-1.9c7.9,2.3,15.7,4.5,23.6,6.8c0.4-1,0.8-1.9,1.2-2.9c-5.5-3.2-11-6.4-18.7-10.8
	c10.6-1.9,22.5,12,26.7-6c-4.6-3-9.6-6.3-17.9-11.7c20.1,5.1,27.5-3.8,30.7-19.1c-3.7-3-7.5-6.2-11.4-9.3c0.3-0.6,0.6-1.2,0.8-1.9
	c3.8,1.3,7.6,2.7,12.1,4.3c0.7-2.8,1.4-5.6,2.5-10.2c5,15.2,9.4,28.5,13.8,41.8c1.4-0.3,2.8-0.7,4.3-1c0.3-4.3,0.6-8.7,0.9-13
	c0.6,0,1.2,0,1.8-0.1c0,8.6,0,17.2,0,29.1c-6.9-7.4-12-12.9-16.7-18.1c-6.6,10.1-5.8,9.7,1.3,22.7c2.9,5.3,1.5,13.1-0.3,20
	c-3.3-8.6-6.6-17.2-9.8-25.8c-1.4-0.1-2.8-0.1-4.3-0.2c-1,6.7-2,13.3-3,20c-0.5,0-1,0-1.6,0c-2,19.5-4,38.9-6.1,59.9
	c-2.6-3.4-4.7-6-4.9-6.3c-1.4,12-3,25.8-4.6,39.6c-1.4-0.1-2.8-0.2-4.1-0.3c-2.3-13.9-4.5-27.7-6.8-41.6c-0.8-0.1-1.6-0.3-2.4-0.4
	c-2.2,9.5-6,18.9-6.3,28.5c-0.4,10.6,2.4,21.3,3.8,32c-2.2,0.7-4.3,1.3-6.5,2c-2.7-7.6-5.4-15.3-8.2-22.9c-0.9,0.1-1.7,0.2-2.6,0.4
	c1.6,12.3,3.2,24.6,5,38.1c-4.6,0-8.7,0-13.8,0c-0.3,4.7-0.6,10-1.2,18.3c-2.1-5.3-3.2-8.1-5.4-13.4c-1.1,5.6-1.9,9.2-3.2,15.8
	c-2.1-6.8-3.3-10.8-5.9-19.3c-3.7,16.9-6.5,29.5-9.6,43.7c-2-5.5-3.6-9.9-5.1-14.2c-3.3,16.3-3.3,16.3,16.1,25.7
	c-7.3-12.7-5.9-13.8,11.6-18.8c20.2-5.9,39-13.4,46.6-36.9c3.7-11.6,14.5-20.8,18.9-32.3c9.7-25.4,17.4-51.6,25-74.5
	c0,0.6,0.7,5.6,0.7,10.7c0,31.2-13.5,57.8-28.8,83.7c-18.3,30.8-36.8,61.6-55.4,92.2c-23.9,39.4-63.1,56.8-103.9,71.8
	c-9.8,3.6-19.7,6.8-27.2,9.4c0-6.4-0.4-12.6,0.1-18.8c0.5-6.1-0.2-13.6,3.1-17.9c19.7-25.9,46.2-46.6,57.8-78.5
	c0.9-2.4,4.2-4,9.5-8.7c1.2,28.3,17,46.8,33.6,66.8c3.7-4.1,7.8-8.7,13.5-15.1c-26.6-15.2-44-35.9-40-69.3c-1.7-0.3-3.3-0.6-5-0.9
	c-12.4,12.9-26.6,24.6-36.7,39.1c-16.6,23.8-32.3,33.4-63.7,29.2c11.9-4.4,23.8-8.7,35.5-13.4c4.9-2,9.2-5.2,13.8-7.8
	c-2.9-4.9-4.8-10.8-8.9-14.5c-7.1-6.4-15.5-11.4-23.3-16.9c-9.8-6.8-13.2-15.9-14.2-23.3c12.5,9.3,25,18.7,37.6,28
	c0.5-0.5,1-0.9,1.5-1.4c-3.1-3.9-6.2-7.8-9.3-11.7c0.4-0.5,0.7-1,1.1-1.5c10.1,6.2,20.2,12.3,30.3,18.5c0.8-1.2,1.5-2.5,2.3-3.7
	c-8.3-5.6-16.6-11.2-24.9-16.8c0.5-0.9,0.9-1.7,1.4-2.6c6.4,3.1,12.8,6.2,19.2,9.3c0.6-1,1.1-1.9,1.7-2.9
	c-6.6-5.9-13.2-11.8-19.8-17.7c0.3-0.5,0.5-1,0.8-1.5c12.8,6.2,25.6,12.4,38.3,18.6c0.6-1.2,1.2-2.4,1.8-3.6
	c-12.7-7.7-25.3-15.4-38-23.1c0.4-0.8,0.8-1.6,1.1-2.3c16.1,6.6,32.2,13.2,48.3,19.8c0.5-1.2,1-2.4,1.6-3.6
	c-8.2-3.5-16.4-7-24.6-10.4c0.3-1.2,0.7-2.5,1-3.7c13.7,4,27.3,8,41,12c0.3-1.1,0.7-2.2,1-3.2c-9.1-3-18.3-5.9-27.4-8.9
	c0.4-1.6,0.8-3.1,1.2-4.7c7,1.1,14.1,2.2,25,3.9c-19.6-10.8-35.8-19.7-52-28.7c0.8-1.6,1.7-3.2,2.5-4.8c19,10.6,35.9,26.9,60.3,23.7
	c-20.5-7.3-41.2-14.1-54.4-33.6c19.5,14.3,39.6,26.6,65.4,25.1c-9.9-3.3-19.7-6.7-29.6-10c0.3-1,0.6-2.1,0.9-3.1
	c10.6,2.2,21.1,4.4,31.7,6.6c0.2-1.2,0.5-2.5,0.7-3.7c-10.7-3.7-21.4-7.4-32.1-11c0.3-1.2,0.5-2.4,0.8-3.6
	c15.1,3.3,31,15.4,44.9-2.9c-8.9-3.1-17.5-6-26.1-8.9c9.5-4.6,21.8,8.8,26.8-8.9c-8.3-4.6-17.2-9.7-26.2-14.7
	c0.4-0.9,0.8-1.8,1.1-2.6c11.9,4.2,23.8,8.3,35.7,12.5c0.5-1.5,1-3,1.6-4.5c-5.4-2.5-10.8-5.1-16.2-7.6c0.3-0.8,0.5-1.6,0.8-2.4
	c7,1.3,14,2.6,20.9,3.8c0.4-1.1,0.9-2.3,1.3-3.4c-7.9-3.8-15.7-7.6-23.6-11.4c0.2-0.5,0.4-1,0.6-1.5c8.2,1.8,16.5,3.6,24.7,5.3
	c0.3-1.1,0.6-2.2,0.9-3.2c-8.9-3.8-17.8-7.6-27.9-12C1594.3,238.8,1609.9,266.3,1618.7,241.3z"/>
<path d="M1264.3,444.3c4.4,1.5,8.8,2.9,13.9,4.6c2.8-5.3,5.7-10.9,9.8-18.8c3,2.8,6.8,6.1,10.5,9.6c12.3,12,24,24.8,37.2,35.6
	c3.7,3.1,12.1,0.5,21.7,0.5c-20.2-20.3-37.8-37.9-55.4-55.5c2-2,4.1-4,6.1-6c11.4,12.6,22.9,25.3,34.3,37.9c0.9-0.9,1.8-1.8,2.8-2.7
	c-9.6-11.5-19.1-22.9-28.7-34.4c0.8-0.7,1.7-1.5,2.5-2.2c18.8,17.8,37.5,35.5,56.3,53.3c0.8-0.8,1.6-1.7,2.3-2.5
	c-19.7-19.4-39.5-38.8-59.2-58.2c1.6-1.8,3.2-3.6,4.8-5.4c19.5,18.5,39.1,37.1,58.6,55.6c1-1,1.9-2.1,2.9-3.1
	c-20.3-21.3-40.6-42.6-60.9-63.9c1.3-1.3,2.5-2.7,3.8-4c6.2,8.2,12.4,16.3,18.6,24.5c1.6-1.5,3.3-2.9,4.9-4.4
	c-2.1-4.5-4.1-9-6.2-13.5c0.7-0.6,1.5-1.2,2.2-1.8c16.9,15.7,33.8,31.3,50.7,47c1.6-1.6,3.1-3.3,4.7-4.9
	c-17.6-15.8-35.2-31.5-52.8-47.3c1.3-1.3,2.5-2.7,3.8-4c20.5,11.5,31.3,36.2,54.8,43.7c-15.8-16.1-31.6-32.3-47.4-48.4
	c1.2-1.2,2.3-2.4,3.5-3.5c16.5,15.2,33,30.4,49.4,45.7c0.6-0.6,1.2-1.3,1.8-1.9c-14.6-12.8-29.1-25.6-43.7-38.5
	c2.4-2.6,4.9-5.3,7.3-7.9c4.4,4,9.7,7.3,13.1,12c10.8,14.8,24.6,18.5,43.8,10.2c-5.3,36.4-35.6,52.6-54.2,81.6
	c15.1-2.6,26.5-4.6,37.9-6.6c0.6,1.6,1.2,3.2,1.7,4.8c-8.3,3.5-16.5,7-25.6,10.9c14.6,13.8,4.3,28.3-4.2,43.9
	c13.5-1.8,26.5-3.4,39.4-5.1c0.3,0.9,0.6,1.7,0.8,2.6c-2.7,1.5-5.3,3.9-8.1,4.3c-62.4,9.6-125,22.7-187.3,2
	c-22.7-7.6-44.8-19.1-64.5-32.6c-7.5-5.1-9.3-20.9-10.5-32.2c-3.5-31.2,19.5-46.9,38.6-64.6c1.5,1.1,3,2.1,4.4,3.2
	c-5.1,6.1-9.1,13.9-15.5,18c-12.8,8.1-14.1,17.7-8.9,29.4c8.7-3.9,16.8-7.5,25-11.2c-11.7,15.1-25.7,18.9-39.6,12.2
	c1.8,11,4.1,20.8,5,30.7c1.4,15.1,12.3,14.7,23,15.6c1.7,0.1,3.6,1.9,4.7,3.4c6.6,8.4,13,7,18-1.1c9.1-14.9,22.6-16.5,38.1-14.7
	c22.7,2.6,26.7,9.8,16.2,33.9c-1.1-7.6-2-13.5-2.9-19.4c-0.7,0-1.3-0.1-2-0.1c-1.3,4.4-2.6,8.7-3.8,13.1c-0.9,0.1-1.9,0.2-2.8,0.2
	c-0.8-4.4-1.5-8.8-2.3-13.2c-4-0.8-8-1.5-12.3-2.4c-0.9,4.6-1.9,9.5-3.7,18.6c-2.3-7.3-3.4-11-5.6-17.7c-2.4,9-4,15.2-6.7,25.5
	c26.5,3.4,52.6,7,78.8,10.1c7.4,0.9,10.7-2.5,9.8-11c-1.1-10.6-0.3-21.5-0.3-32.3c-1.3-0.2-2.6-0.4-3.9-0.5
	c-1.8,6.7-3.5,13.5-5.3,20.2c-0.6-0.1-1.3-0.2-1.9-0.3c-0.8-7.3-1.6-14.6-2.4-21.9c-1.3,0.1-2.5,0.1-3.8,0.2
	c-0.8,6.4-1.6,12.7-2.4,19.1c-3.3-36.4-30-48.7-58.7-60.2c-3.8,4.8-7.2,9.1-10.6,13.4c-1.3-0.7-2.6-1.5-3.9-2.2
	c3.9-8.3,7.8-16.6,12.2-25.9c4,3.8,7,6.7,12.7,12.1c-2.3-6.3-3.4-9.5-4.6-12.7c0.9-0.7,1.7-1.4,2.6-2.1c6.9,8.1,13.8,16.2,20.7,24.3
	c0.8-0.6,1.6-1.2,2.4-1.7C1268.2,450,1266.3,447.1,1264.3,444.3L1264.3,444.3z M1328.9,490.5c-1,0-2.1-0.1-3.1-0.1
	c-1.3,13.3-2.7,26.7-4.2,41.7c22.8-1.3,43.6-2.5,65.6-3.8c-1.5-16.9-2.7-30.8-4-44.7c-1.4,0.2-2.8,0.3-4.1,0.5
	c-0.8,9.6-1.5,19.2-2.3,28.9c-1.2-0.1-2.4-0.2-3.6-0.2c-1.4-9.1-2.9-18.2-4.3-27.2c-1.4,0.2-2.7,0.3-4.1,0.5
	c-0.8,10.4-1.6,20.9-2.5,31.3c-1.3,0-2.7-0.1-4-0.1c0-9.2,0-18.4,0-27.6c-0.9-0.1-1.8-0.2-2.6-0.3c-2,4.9-4,9.8-7,17.2
	c-1.6-8.6-2.7-14.1-3.7-19.5c-1.4-0.1-2.7-0.2-4.1-0.2c-2.1,8.7-4.2,17.5-6.3,26.2c-0.8,0-1.5,0-2.3,0
	C1331.2,505.5,1330.1,498,1328.9,490.5z M1291,442.4c-2,7.8-3.3,13.2-4.7,18.5c5.7,0.6,11.3,1.3,17.7,2c-1,3-2.4,7.1-4.9,14.4
	c10.4,1,19.2,1.8,31.4,2.9C1316.3,466.7,1304.9,455.7,1291,442.4z M1388.7,444.9c1.2-1.3,2.4-2.6,3.6-3.9
	c-11.8-10.8-23.7-21.6-35.5-32.4c-1.3,1.5-2.7,2.9-4,4.4C1364.7,423.6,1376.7,434.2,1388.7,444.9z"/>
<path class="st0" d="M1485.1,456.7c-0.9,0.5-1.9,0.9-2.8,1.4c4.9,12.5,9.9,24.9,15.5,39c19.6-11.7,37.6-22.3,56.5-33.6
	c-9.1-14.3-16.6-26.1-24.1-37.8c-1.2,0.8-2.3,1.6-3.5,2.3c3.7,8.9,7.5,17.8,11.2,26.7c-1.1,0.5-2.2,0.9-3.3,1.4
	c-5.5-7.4-10.9-14.8-16.4-22.2c-1.1,0.8-2.3,1.5-3.4,2.3c4.1,9.6,8.1,19.3,12.2,28.9c-1.2,0.6-2.4,1.1-3.6,1.7
	c-4.2-8.2-8.5-16.3-12.7-24.5c-0.8,0.3-1.7,0.6-2.5,1c0.5,5.3,1,10.5,1.7,18.5c-5.4-6.9-8.8-11.3-12.3-15.6
	c-1.2,0.6-2.5,1.1-3.7,1.7c2.2,8.7,4.3,17.4,6.5,26.2c-0.7,0.4-1.3,0.7-2,1.1C1494,469,1489.6,462.9,1485.1,456.7z"/>
<path d="M1340.9,225.4c-16.3-10.5-18.6-16.3-7-25.5c-1.7,16.8-1.7,16.8,22.2,13.2c-3.3-4.1-6.4-8-9.5-11.9c0.4-0.7,0.7-1.4,1.1-2.1
	c4.5,2,9,4.1,16.8,7.6c-4.5-5.3-6.9-8.3-10.6-12.6c4.2,0.3,7.1,0.6,11.7,1c-2.6-4.2-4.8-7.5-8.6-13.7c8.6,4.3,14.7,7.3,20.8,10.3
	c0.8-1.1,1.5-2.2,2.3-3.3c-7.4-5.9-14.9-11.8-22.3-17.7c0.4-0.7,0.8-1.4,1.2-2.1c10.1,6,20.7,11.3,30.2,18.2
	c8.7,6.3,14.2,4.3,19.9-4.2c-12.5-10-24.5-19.7-36.6-29.3c0.9-1.3,1.8-2.5,2.7-3.8c14,10.4,28,20.8,41.9,31.1c0.9-1,1.8-2.1,2.7-3.1
	c-11.1-9.3-22.1-18.5-33.2-27.8c0.7-0.9,1.4-1.8,2.1-2.7c17.3,11.7,34.6,23.4,51.9,35.1c0.5-0.8,1.1-1.5,1.6-2.3
	c-13.4-10.4-26.9-20.7-40.3-31.1c0.9-1.3,1.7-2.5,2.6-3.8c7.8,5.4,15.6,10.7,23.4,16.1c0.7-0.9,1.5-1.8,2.2-2.6
	c-7.6-7-15.2-14-22.9-21.1c0.7-0.9,1.4-1.8,2-2.7c5.4,3,10.7,6,19.2,10.7c-4.8-6.2-7.7-9.9-10.6-13.6c0.7-0.9,1.4-1.8,2.1-2.7
	c13.5,10.3,26.9,20.5,40.4,30.8c0.7-1.1,1.5-2.1,2.2-3.2c-12.2-10.1-24.3-20.3-36.5-30.4c0.8-1,1.6-2.1,2.3-3.1
	c11.4,8.9,22.9,17.7,34.5,26.7c2.5-3.1,5.2-6.5,7.9-10c-2.6-3.3-5.2-6.8-7.8-10.2c0.5-0.6,1-1.1,1.5-1.7c3.6,2.8,7.2,5.6,10.8,8.4
	c0.6-0.5,1.3-0.9,1.9-1.4c-2.3-3.6-4.7-7.1-9-13.7c7.5,4.5,12.3,7.3,17.2,10.2c0.5-0.6,1.1-1.3,1.6-1.9
	c-6.2-6.7-12.5-13.4-18.7-20.1c0.7-0.9,1.4-1.8,2.1-2.7c4.4,3.1,8.8,6.2,13.2,9.4c0.6-0.4,1.2-0.8,1.8-1.2
	c-3.2-5-6.4-10.1-10.1-15.9c2.3-1.6,4.5-3.1,7.2-5c-2.1-2.7-4.2-5.4-7.5-9.9c5,1.2,8.3,2,14.1,3.5c-4.3-5.5-7.1-9.1-10.9-13.9
	c5.4,0,9.6,0,15.1,0c2.1,10.5,4.3,21.3,7,34.8c2.8-6.5,4.6-10.6,6.4-14.8c1,0.2,2,0.4,3,0.7c-2.2,9-4.5,17.9-7.7,31
	c5.3-5.6,7.7-8.1,11.3-11.9c0,4.3,0,7,0,9.7c1,0.3,2,0.6,3,0.9c2.9-9,5.9-18,8.8-27.1c1.2,0.1,2.4,0.2,3.6,0.3
	c-1.1,8.9-2.3,17.7-3.4,26.6c0.7,0.2,1.3,0.4,2,0.6c3-9.7,6-19.3,9-29c1.6,0.5,3.3,1.1,4.9,1.6c-4.1,13.3-8.3,26.5-12.4,39.8
	c0.7,0.4,1.4,0.8,2.1,1.2c5.1-8.7,10.2-17.3,15.3-26c0.8,0.3,1.7,0.6,2.5,1c-2.8,7.9-5.6,15.8-8.6,24.4c1.9-0.8,3.8-1.6,7-3
	c-0.3,3.7-0.6,6.8-0.8,9.8c0.7,0.3,1.4,0.6,2.2,0.8c5.5-9.1,11.1-18.2,16.6-27.4c1,0.5,2,1.1,3,1.6c-3.6,7.2-7.3,14.5-10.9,21.7
	c1.1,0.7,2.3,1.4,3.4,2.1c5.3-8.4,10.6-16.8,15.9-25.3c0.8,0.4,1.7,0.9,2.5,1.3c-2.9,6.7-5.7,13.3-8.9,20.7c3.6,1.2,7,2.3,10.9,3.5
	c-1,2.2-1.3,4.3-2.2,4.5c-19,5.1-34.5,12.2-41.1,34.6c-2.9,9.7-19.2,14.7-27,23.9c-10.1,11.9-18.8,25.3-26.3,39.1
	c-10.1,18.7-18.4,38.4-29,60.8c-12.6-17.3-20.8-31.2-21.4-48c1.3-0.5,2.6-1,3.9-1.6c3.6,9.9,7.1,19.8,10.7,29.6
	c0.9-0.3,1.8-0.6,2.8-0.8c-3.4-13.6-6.7-27.2-10.1-40.8c1.1-0.3,2.2-0.7,3.3-1c3.9,11.4,7.7,22.9,11.6,34.3c1.1-0.3,2.2-0.6,3.3-0.9
	c-3-13.2-5.9-26.5-8.9-39.7c0.9-0.3,1.9-0.7,2.8-1c3.7,9.5,7.3,19,11,28.5c1.2-0.4,2.3-0.7,3.5-1.1c-2.7-11.2-5.5-22.5-8.2-33.7
	c0.6-0.3,1.2-0.5,1.8-0.8c2.9,4.7,5.8,9.5,8.7,14.2c-5.2-25,17.6-29,30.7-41.9c-4.4-1.6-7.4-3.4-10.4-3.6
	c-10.5-0.7-21.2-0.1-29.6-8.7c-1.5-1.6-5.1-2.8-7.1-2.1c-31.2,10.5-68.7,6.5-91.4,36.9c-8.1,10.8-12.7,24.3-22,35.5
	C1340.9,249.6,1340.9,239.7,1340.9,225.4z M1494.1,189.8c17,3.6,40.9-10.6,43.1-25.7c1.2-8.1-15.9-27.5-26.3-27.5
	c-18.4,0-35.5,9.5-37.4,37.6c10.1,2.7,20.2,5.3,28.7,7.6c4.8-8.2,8.2-14.1,12.1-20.9C1527,177.6,1527,177.6,1494.1,189.8z"/>
<path d="M1235.1,403.3c-2.4-3.3-4.7-6.6-7.8-10.9c-4.9,2.1-11,4.8-17.1,7.5c-0.7-1.1-1.4-2.2-2.1-3.4c11.8-7.5,23.1-15.7,35.4-22.3
	c31.2-17,54.3-41.8,71.4-72.4c2.1-3.7,3.7-8.6,3.3-12.8c-2.6-30.5-4.3-61.3-9.1-91.5c-7.7-48,8.1-84.6,52-104.7
	c28.3-13,58.7-21.5,88.3-31.6c4.6-1.6,9.8-1.4,15.5,0.6c-7.6,2.5-15.3,4.5-22.7,7.5c-31.2,12.6-63.3,23.5-93.1,38.9
	c-25,13-35.1,38.2-37.4,65.9c-0.6,7.7-0.4,16.3,8.5,12.3c-0.6,24.6-1.4,50.6-1.8,76.7c0,2.8,1.5,8,2.9,8.2c9.9,1.4,5.3,6.4,5,12.2
	c-0.4,6.7,4,13.6,5.1,20.6c0.4,2.5-3,8.1-4,7.9c-17.4-2.9-16.4,10.8-19.8,20.9c-1.5,4.4-3.1,9.9-6.5,12.2c-12,8.3-25,15.1-37,23.2
	c-2.9,1.9-3.5,7.1-5.8,12.2c-6,1.1-14.3,2.6-22.9,4.3c-0.4,7-0.7,13-1,18.9C1234.6,403.8,1235.1,403.3,1235.1,403.3z"/>
<path d="M1606.5,137.1c3.7-10.8,7.4-21.7,11.2-32.5c1.1,0.2,2.2,0.5,3.3,0.7c-1.7,7.9-3.3,15.9-5,23.8c0.8,0.3,1.6,0.7,2.4,1
	c3.7-9.9,7.3-19.8,11-29.7c0.7,0.2,1.4,0.3,2.1,0.5c-1.5,10.1-3,20.1-4.5,30.2c1.4,0.3,2.8,0.7,4.2,1c3-11.9,5.9-23.9,8.9-35.8
	c0.8,0.2,1.7,0.3,2.5,0.5c-0.7,9.8-1.4,19.7-2.1,29.5c0.7,0.2,1.5,0.4,2.2,0.7c2.5-7.7,4.9-15.4,7.4-23.1c0.6,0,1.3,0.1,1.9,0.1
	c-1,8.7-2.1,17.4-3.1,26.1c1.5,0.2,3.1,0.5,4.6,0.7c2.4-14.1,4.7-28.2,7-42.1c12.3,4.1,18.2,28.3,16.8,70.6
	c-0.9-0.2-2.3-0.2-2.6-0.7c-3.6-6.5-6.7-18.7-10.5-18.9c-17.8-0.9-35.7,1.1-53.5,2.7c-7.4,0.7-14.7,2.8-24.3,4.6
	c6.3-11.2,11.4-18.6,14.6-26.7c3.2-8.1,4.5-17,6.7-25.6c1.6,0.4,3.3,0.7,4.9,1.1c-3.2,13.4-6.3,26.8-9.5,40.2
	C1604.1,136.3,1605.3,136.7,1606.5,137.1z"/>
<path d="M1334.4,354.1c10.3-3.9,20.5-8.2,31.1-11.5c2.6-0.8,6.2,1.7,13.1,3.9c6.6-4.1,17-10.5,29-17.9
	c-14.5,29.7-95.7,57.8-131,57.3c20.8-11.5,39.6-21.8,58.4-32.2C1335,353.6,1334.4,354.1,1334.4,354.1z"/>
<path d="M1652,82.2c-26.7-8.4-52.9-19.4-80.2-24.6c-22.3-4.2-45.8-1.9-68.8-1.7c-3.1,0-6,4.4-9.3,6.3c-2.3,1.3-5,2.4-7.6,2.5
	c-1,0-3.3-3.2-3-4.3c0.7-2.6,2.4-5.2,4.4-7c1.3-1.2,3.8-1.3,5.8-1.4c44-2.4,87.7-1.2,130,12.4c10.8,3.5,20.2,11.4,30.3,17.3
	C1653.1,81.8,1652.5,82,1652,82.2z"/>
<path d="M1366.1,282.5c14.2-3.6,25.7-7.5,37.4-9.2c8.1-1.2,14,1.9,3.7,11.8c10.9,1.3,19.7,2.3,28.5,3.4c0.3,1.1,0.5,2.1,0.8,3.2
	c-14.1,3.7-28.2,7.4-44.3,11.6c1-4.8,1.7-8.2,2.7-12.8C1385.7,288,1376.7,285.5,1366.1,282.5z"/>
<path d="M1421.5,311.5c-24.7,21.4-39.8,25.5-56.8,17.5C1378.9,311.4,1397.7,306.3,1421.5,311.5z"/>
<path d="M1234.6,403.8c11.1-5.5,22.3-11,37.3-18.4c-10.5,15.4-18.5,27.2-26.4,38.9c-0.6-0.2-1.2-0.4-1.8-0.6c3-6.6,6-13.2,8.9-19.7
	c-1.4-0.9-2.8-1.9-4.1-2.8c-8.1,12.1-16.2,24.1-24.3,36.2c-1-0.5-1.9-1-2.9-1.6c4.6-10.9,9.3-21.7,13.9-32.6
	C1235.1,403.3,1234.6,403.8,1234.6,403.8z"/>
<path d="M1216.5,449c-2.9,21.9-17.6,26.7-33.3,30.4C1193.4,470.1,1203.7,460.7,1216.5,449z"/>
<path d="M1334.4,354.1c0,0,0.6-0.5,0.6-0.5c-8.1,2.2-16.2,4.4-24.3,6.7c13.2-9.3,24.7-22.1,44.7-20.3
	C1347.1,345.5,1340.8,349.8,1334.4,354.1z"/>
<path d="M1370.6,251.5c2.2,9,3.6,14.6,4.9,20.2c-4.7,0-10.6,0-19.5,0C1361.1,264.6,1365,259.2,1370.6,251.5z"/>
<path d="M1264.3,444.3c0-15.6,8.1-26,22.6-25.8C1278.7,427.9,1271.5,436.1,1264.3,444.3C1264.3,444.3,1264.3,444.3,1264.3,444.3z"/>
<path d="M1369,303.2c-11.7-1.9-20.3-3.3-29.2-4.8C1345.2,288.1,1355.5,289.2,1369,303.2z"/>
<g>
	<path d="M349,822c-5.2-30.8-10.5-61.5-19.3-92.1c0,98,0,196,0,294.7c-26.9,0-51.5,0-77.4,0c0-145.2,0-290.1,0-435.9
		c43.6,0,86.8,0,131.8,0c11.7,85.1,23.4,170.1,35.1,255.2c1.1,0.1,2.2,0.2,3.3,0.2c11.7-84.9,23.5-169.7,35.3-255.4
		c44.5,0,88.3,0,133.4,0c0,146,0,290.2,0,435.5c-26,0-51.5,0-78.1,0c0-100.1,0-199.7,0-299.2c-1.1-0.1-2.3-0.3-3.4-0.4
		c-16,99.9-32.1,199.9-48.3,300.8c-24.1,0-46.8,0.5-69.5-0.5"/>
	<path d="M1463.9,711.6c-30.9,0-55.7,0-86.6,0c0-9.6,0.5-19-0.1-28.4c-0.7-12.4-6.8-20-20.3-19.2c-13.2,0.8-20.8,9.4-17.8,21.1
		c3.3,13.1,9,27.2,17.9,37.1c20.6,22.9,43.2,44.1,65.8,65.1c59.3,55,51.9,139.1,32.1,190.5c-9.7,25.1-28.9,41.3-55.5,47.3
		c-29.3,6.6-58.3,5.1-86.6-5.1c-27.5-9.9-45.2-30.5-50.3-58.3c-5.9-32-2.2-64.8-5.6-98.7c31.8,0,54.3,0,83.6,0
		c0,14.1-0.2,27.7,0.1,41.2c0.2,9.1,0.2,18.3,1.9,27.2c2.1,11.2,9.6,17.9,21.5,17.1c11.3-0.8,17.1-7.9,18-19
		c2.5-28.9-2.7-55.6-23.9-77.1c-22-22.4-44.3-44.5-66.1-67c-38.4-39.8-45-87.1-29.9-138.1c12.8-43.1,49.5-66.3,97-63.8
		c9.6,0.5,19.3,1,28.6,3c42.5,9,65.6,33,73.4,76.4C1464,678.6,1462.9,695,1463.9,711.6z"/>
	<path d="M714.3,672.3c0.8,22.7,0.2,60,0.2,84.5c27.8,0,54.3,0,81.8,0c0,28,0,54,0,82.1c-26.8,0-53.3,0-80.8,0
		c0,34.6,0,67.2,0,101.1c30.1,0,59.3,0,89.7,0c0,28.3,0,55.3,0,83.7c-58.8,0-118.1,0-178.4,0c0-144.8,0-289.8,0-435.5
		c57.8,0,114.7,0,172.9,0c0,28.2,0,54.8,0,83.2"/>
	<path d="M1191.6,671.5c0.6,105.8,0.3,229,0.3,334.8c0,5.9,0,11.8,0,18.1c-29.9,0-57.5,0-86.7,0c0-117.5,0-234.1,0-353.7
		c-18.6,0-34.6,0-51.3,0c0-28.4,0-54.8,0-82.2c63.4,0,125.8,0,189,0c0,27.5,0,54.1,0,82.3"/>
	<g>
		<polygon points="820.1,1024.7 862.1,588.7 1010.3,588.7 1051.8,1025.3 976.5,1024.8 963.8,954.4 914.3,954.4 904.3,1024.7 		"/>
		<polygon class="st0" points="917.8,869.6 954.2,869.6 936,676.9 		"/>
	</g>
</g>
</svg>
